<?xml version="1.0" standalone="no"?>
<!DOCTYPE svg PUBLIC "-//W3C//DTD SVG 20010904//EN"
 "http://www.w3.org/TR/2001/REC-SVG-20010904/DTD/svg10.dtd">
<svg version="1.0" xmlns="http://www.w3.org/2000/svg"
 width="216.000000pt" height="233.000000pt" viewBox="0 0 216.000000 233.000000"
 preserveAspectRatio="xMidYMid meet">

<g transform="translate(0.000000,233.000000) scale(0.100000,-0.100000)"
fill="#000000" stroke="none">
<path d="M918 2057 c-111 -36 -178 -130 -178 -246 1 -184 164 -303 342 -249
50 15 122 78 151 132 28 54 31 174 4 223 -28 52 -77 102 -121 125 -49 25 -146
33 -198 15z m120 -139 l3 -58 52 0 c59 0 77 -12 77 -50 0 -38 -18 -50 -77 -50
l-53 0 0 -61 0 -60 -42 3 -43 3 -3 57 -3 57 -57 3 -57 3 -3 42 c-3 38 -1 43
22 49 15 3 42 4 61 2 l35 -4 0 56 c0 31 3 60 7 64 4 4 23 6 43 4 l35 -3 3 -57z"/>
<path d="M950 1490 c-19 -19 -20 -34 -21 -252 -1 -128 -4 -246 -8 -262 l-6
-29 -44 57 c-54 70 -76 86 -117 86 -45 0 -68 -29 -61 -80 6 -50 100 -213 191
-333 74 -97 86 -126 86 -199 l0 -48 200 0 200 0 0 73 c0 66 3 76 26 98 59 55
68 90 72 267 4 192 -2 212 -66 212 -21 0 -43 -5 -50 -12 -9 -9 -12 -7 -12 11
0 24 -50 81 -72 81 -7 0 -25 -7 -40 -14 -27 -14 -28 -14 -28 10 0 50 -62 80
-111 54 -18 -10 -19 -6 -19 120 0 126 -1 132 -25 155 -29 30 -68 32 -95 5z"/>
<path d="M0 85 l0 -85 1080 0 1080 0 0 85 0 85 -1080 0 -1080 0 0 -85z m218
13 c14 5 15 4 2 -10 -9 -10 -17 -12 -21 -6 -4 6 -9 5 -12 -3 -3 -8 -4 -4 -4 8
1 14 5 19 10 14 5 -5 17 -7 25 -3z m78 3 c-18 -7 -18 -8 -3 -14 9 -3 17 -11
17 -16 0 -14 -29 -21 -36 -9 -4 6 -3 8 4 4 6 -3 13 -2 16 3 3 5 -1 11 -9 15
-23 8 -18 26 8 25 20 0 20 -1 3 -8z m31 -28 c-3 -10 -5 -4 -5 12 0 17 2 24 5
18 2 -7 2 -21 0 -30z m112 21 c4 3 7 -3 7 -13 0 -10 -6 -18 -13 -18 -8 0 -13
11 -12 26 0 14 3 20 6 13 2 -6 8 -10 12 -8z m-41 -5 c-9 -6 -8 -12 3 -25 13
-16 12 -16 -8 -6 -14 8 -24 9 -28 2 -9 -15 -25 -2 -25 20 0 14 7 18 35 17 19
-1 29 -4 23 -8z m1323 -13 c5 3 9 0 9 -6 0 -15 -23 -7 -26 8 -1 7 0 8 3 2 2
-5 9 -8 14 -4z m79 -7 c0 -5 -4 -9 -10 -9 -5 0 -10 7 -10 16 0 8 5 12 10 9 6
-3 10 -10 10 -16z m154 6 c3 -8 1 -15 -4 -15 -6 0 -10 7 -10 15 0 8 2 15 4 15
2 0 6 -7 10 -15z m23 -7 c-3 -8 -6 -5 -6 6 -1 11 2 17 5 13 3 -3 4 -12 1 -19z
m36 5 c-3 -7 -6 -13 -8 -13 -2 0 -5 6 -8 13 -3 8 1 14 8 14 7 0 11 -6 8 -14z
m76 -12 c-15 -5 -22 6 -14 19 6 9 10 9 16 -1 5 -8 4 -15 -2 -18z m-1965 3 c3
-8 2 -12 -4 -9 -6 3 -10 10 -10 16 0 14 7 11 14 -7z m126 12 c0 -2 -8 -10 -17
-17 -16 -13 -17 -12 -4 4 13 16 21 21 21 13z m1374 -4 c3 -5 -1 -9 -9 -9 -8 0
-15 4 -15 9 0 4 4 8 9 8 6 0 12 -4 15 -8z m66 -2 c0 -5 -7 -10 -15 -10 -8 0
-15 5 -15 10 0 6 7 10 15 10 8 0 15 -4 15 -10z m174 -2 c-3 -4 -9 -8 -15 -8
-5 0 -9 4 -9 8 0 5 7 9 15 9 8 0 12 -4 9 -9z m31 2 c3 -5 1 -10 -4 -10 -6 0
-11 5 -11 10 0 6 2 10 4 10 3 0 8 -4 11 -10z m150 0 c3 -5 1 -10 -4 -10 -6 0
-11 5 -11 10 0 6 2 10 4 10 3 0 8 -4 11 -10z"/>
<path d="M350 74 c0 -8 5 -12 10 -9 6 3 10 10 10 16 0 5 -4 9 -10 9 -5 0 -10
-7 -10 -16z"/>
</g>
</svg>
